<mxfile host="app.diagrams.net" modified="2024-06-03T11:04:20.968Z" agent="Mozilla/5.0 (Macintosh; Intel Mac OS X 10_15_7) AppleWebKit/537.36 (KHTML, like Gecko) Chrome/124.0.0.0 Safari/537.36" etag="7wo3CbomJki820oD7r6L" version="24.4.13" type="github">
  <diagram name="第 1 页" id="1h_d26M20uPF9yHseVUy">
    <mxGraphModel dx="1285" dy="867" grid="1" gridSize="10" guides="1" tooltips="1" connect="1" arrows="1" fold="1" page="1" pageScale="1" pageWidth="827" pageHeight="1169" math="0" shadow="0">
      <root>
        <mxCell id="0" />
        <mxCell id="1" parent="0" />
        <mxCell id="fsbalLZxM5gX22EcMw-Y-3" style="edgeStyle=orthogonalEdgeStyle;rounded=0;sketch=1;hachureGap=4;jiggle=2;curveFitting=1;orthogonalLoop=1;jettySize=auto;html=1;exitX=0.5;exitY=1;exitDx=0;exitDy=0;entryX=0.5;entryY=0;entryDx=0;entryDy=0;fontFamily=Architects Daughter;fontSource=https%3A%2F%2Ffonts.googleapis.com%2Fcss%3Ffamily%3DArchitects%2BDaughter;" edge="1" parent="1" source="fsbalLZxM5gX22EcMw-Y-1" target="fsbalLZxM5gX22EcMw-Y-2">
          <mxGeometry relative="1" as="geometry" />
        </mxCell>
        <mxCell id="fsbalLZxM5gX22EcMw-Y-1" value="parser" style="rounded=0;whiteSpace=wrap;html=1;sketch=1;curveFitting=1;jiggle=2;" vertex="1" parent="1">
          <mxGeometry x="340" y="60" width="120" height="60" as="geometry" />
        </mxCell>
        <mxCell id="fsbalLZxM5gX22EcMw-Y-4" style="edgeStyle=orthogonalEdgeStyle;rounded=0;sketch=1;hachureGap=4;jiggle=2;curveFitting=1;orthogonalLoop=1;jettySize=auto;html=1;exitX=0.5;exitY=1;exitDx=0;exitDy=0;fontFamily=Architects Daughter;fontSource=https%3A%2F%2Ffonts.googleapis.com%2Fcss%3Ffamily%3DArchitects%2BDaughter;entryX=0.5;entryY=0;entryDx=0;entryDy=0;" edge="1" parent="1" source="fsbalLZxM5gX22EcMw-Y-2" target="fsbalLZxM5gX22EcMw-Y-5">
          <mxGeometry relative="1" as="geometry">
            <mxPoint x="400" y="290" as="targetPoint" />
          </mxGeometry>
        </mxCell>
        <mxCell id="fsbalLZxM5gX22EcMw-Y-2" value="知识库解析" style="rounded=0;whiteSpace=wrap;html=1;sketch=1;curveFitting=1;jiggle=2;" vertex="1" parent="1">
          <mxGeometry x="340" y="160" width="120" height="60" as="geometry" />
        </mxCell>
        <mxCell id="fsbalLZxM5gX22EcMw-Y-9" style="edgeStyle=orthogonalEdgeStyle;rounded=0;sketch=1;hachureGap=4;jiggle=2;curveFitting=1;orthogonalLoop=1;jettySize=auto;html=1;exitX=0.5;exitY=1;exitDx=0;exitDy=0;entryX=0.5;entryY=0;entryDx=0;entryDy=0;fontFamily=Architects Daughter;fontSource=https%3A%2F%2Ffonts.googleapis.com%2Fcss%3Ffamily%3DArchitects%2BDaughter;" edge="1" parent="1" source="fsbalLZxM5gX22EcMw-Y-5" target="fsbalLZxM5gX22EcMw-Y-7">
          <mxGeometry relative="1" as="geometry" />
        </mxCell>
        <mxCell id="fsbalLZxM5gX22EcMw-Y-5" value="解析后的表格采样送大模型" style="rounded=0;whiteSpace=wrap;html=1;sketch=1;curveFitting=1;jiggle=2;" vertex="1" parent="1">
          <mxGeometry x="340" y="260" width="120" height="60" as="geometry" />
        </mxCell>
        <mxCell id="fsbalLZxM5gX22EcMw-Y-8" style="edgeStyle=orthogonalEdgeStyle;rounded=0;sketch=1;hachureGap=4;jiggle=2;curveFitting=1;orthogonalLoop=1;jettySize=auto;html=1;exitX=0;exitY=0.5;exitDx=0;exitDy=0;fontFamily=Architects Daughter;fontSource=https%3A%2F%2Ffonts.googleapis.com%2Fcss%3Ffamily%3DArchitects%2BDaughter;entryX=0.5;entryY=0;entryDx=0;entryDy=0;" edge="1" parent="1" target="fsbalLZxM5gX22EcMw-Y-16">
          <mxGeometry relative="1" as="geometry">
            <mxPoint x="390" y="580" as="targetPoint" />
            <mxPoint x="354" y="410" as="sourcePoint" />
            <Array as="points">
              <mxPoint x="260" y="410" />
              <mxPoint x="260" y="570" />
              <mxPoint x="390" y="570" />
            </Array>
          </mxGeometry>
        </mxCell>
        <mxCell id="fsbalLZxM5gX22EcMw-Y-10" value="横表" style="edgeLabel;html=1;align=center;verticalAlign=middle;resizable=0;points=[];sketch=1;hachureGap=4;jiggle=2;curveFitting=1;fontFamily=Architects Daughter;fontSource=https%3A%2F%2Ffonts.googleapis.com%2Fcss%3Ffamily%3DArchitects%2BDaughter;" vertex="1" connectable="0" parent="fsbalLZxM5gX22EcMw-Y-8">
          <mxGeometry x="-0.2927" y="1" relative="1" as="geometry">
            <mxPoint x="49" y="-59" as="offset" />
          </mxGeometry>
        </mxCell>
        <mxCell id="fsbalLZxM5gX22EcMw-Y-11" style="edgeStyle=orthogonalEdgeStyle;rounded=0;sketch=1;hachureGap=4;jiggle=2;curveFitting=1;orthogonalLoop=1;jettySize=auto;html=1;exitX=1;exitY=0.5;exitDx=0;exitDy=0;fontFamily=Architects Daughter;fontSource=https%3A%2F%2Ffonts.googleapis.com%2Fcss%3Ffamily%3DArchitects%2BDaughter;" edge="1" parent="1" source="fsbalLZxM5gX22EcMw-Y-7">
          <mxGeometry relative="1" as="geometry">
            <mxPoint x="520" y="470" as="targetPoint" />
          </mxGeometry>
        </mxCell>
        <mxCell id="fsbalLZxM5gX22EcMw-Y-12" value="竖表" style="edgeLabel;html=1;align=center;verticalAlign=middle;resizable=0;points=[];sketch=1;hachureGap=4;jiggle=2;curveFitting=1;fontFamily=Architects Daughter;fontSource=https%3A%2F%2Ffonts.googleapis.com%2Fcss%3Ffamily%3DArchitects%2BDaughter;" vertex="1" connectable="0" parent="fsbalLZxM5gX22EcMw-Y-11">
          <mxGeometry x="-0.2915" y="5" relative="1" as="geometry">
            <mxPoint as="offset" />
          </mxGeometry>
        </mxCell>
        <mxCell id="fsbalLZxM5gX22EcMw-Y-7" value="大模型判断表格类型" style="rhombus;whiteSpace=wrap;html=1;sketch=1;hachureGap=4;jiggle=2;curveFitting=1;fontFamily=Architects Daughter;fontSource=https%3A%2F%2Ffonts.googleapis.com%2Fcss%3Ffamily%3DArchitects%2BDaughter;" vertex="1" parent="1">
          <mxGeometry x="355" y="370" width="90" height="80" as="geometry" />
        </mxCell>
        <mxCell id="fsbalLZxM5gX22EcMw-Y-15" style="edgeStyle=orthogonalEdgeStyle;rounded=0;sketch=1;hachureGap=4;jiggle=2;curveFitting=1;orthogonalLoop=1;jettySize=auto;html=1;exitX=0.5;exitY=1;exitDx=0;exitDy=0;fontFamily=Architects Daughter;fontSource=https%3A%2F%2Ffonts.googleapis.com%2Fcss%3Ffamily%3DArchitects%2BDaughter;" edge="1" parent="1" source="fsbalLZxM5gX22EcMw-Y-14">
          <mxGeometry relative="1" as="geometry">
            <mxPoint x="390" y="620" as="targetPoint" />
            <Array as="points">
              <mxPoint x="520" y="570" />
              <mxPoint x="390" y="570" />
            </Array>
          </mxGeometry>
        </mxCell>
        <mxCell id="fsbalLZxM5gX22EcMw-Y-14" value="表格转置" style="rounded=0;whiteSpace=wrap;html=1;sketch=1;hachureGap=4;jiggle=2;curveFitting=1;fontFamily=Architects Daughter;fontSource=https%3A%2F%2Ffonts.googleapis.com%2Fcss%3Ffamily%3DArchitects%2BDaughter;" vertex="1" parent="1">
          <mxGeometry x="470" y="470" width="100" height="60" as="geometry" />
        </mxCell>
        <mxCell id="fsbalLZxM5gX22EcMw-Y-16" value="结束" style="rounded=0;whiteSpace=wrap;html=1;sketch=1;hachureGap=4;jiggle=2;curveFitting=1;fontFamily=Architects Daughter;fontSource=https%3A%2F%2Ffonts.googleapis.com%2Fcss%3Ffamily%3DArchitects%2BDaughter;" vertex="1" parent="1">
          <mxGeometry x="330" y="620" width="120" height="40" as="geometry" />
        </mxCell>
      </root>
    </mxGraphModel>
  </diagram>
</mxfile>
